<svg xmlns="http://www.w3.org/2000/svg" version="1.1" xmlns:xlink="http://www.w3.org/1999/xlink" xmlns:svgjs="http://svgjs.dev/svgjs" width="1500" height="678" viewBox="0 0 1500 678"><g transform="matrix(1,0,0,1,-0.9090909090909918,-0.18963452397639458)"><svg viewBox="0 0 396 179" data-background-color="#ff5e00" preserveAspectRatio="xMidYMid meet" height="678" width="1500" xmlns="http://www.w3.org/2000/svg" xmlns:xlink="http://www.w3.org/1999/xlink"><g id="tight-bounds" transform="matrix(1,0,0,1,0.2400000000000091,0.05006575190526519)"><svg viewBox="0 0 395.52 178.89986849618947" height="178.89986849618947" width="395.52"><g><svg viewBox="0 0 395.52 178.89986849618947" height="178.89986849618947" width="395.52"><g transform="matrix(1,0,0,1,0,110.5672958374166)"><svg viewBox="0 0 395.52 68.33257265877288" height="68.33257265877288" width="395.52"><g id="textblocktransform"><svg viewBox="0 0 395.52 68.33257265877288" height="68.33257265877288" width="395.52" id="textblock"><g><svg viewBox="0 0 395.52 68.33257265877288" height="68.33257265877288" width="395.52"><g transform="matrix(1,0,0,1,0,0)"><svg width="395.52" viewBox="2.2 -36.5 278.67 48.15" height="68.33257265877288" data-palette-color="#faf1cb"><path d="M26.4-3.45Q26.95-2.7 26.95-1.85L26.95-1.85Q26.95-0.85 26.08-0.23 25.2 0.4 23.85 0.4L23.85 0.4Q19.75 0.4 19.75-6L19.75-6 19.75-6.35Q18.55-3.05 16.32-1.2 14.1 0.65 10.8 0.65L10.8 0.65Q6 0.65 4.1-2.9 2.2-6.45 2.2-11.5L2.2-11.5Q2.2-18.4 4.93-22.23 7.65-26.05 12.7-26.05L12.7-26.05Q15.25-26.05 17.03-25.03 18.8-24 19.6-22.05L19.6-22.05 19.55-28.75Q19.55-33.35 18.9-35.6L18.9-35.6Q19.8-36.5 21.2-36.5L21.2-36.5Q22.25-36.5 22.9-35.93 23.55-35.35 23.55-34.3L23.55-34.3 23.5-5.25Q23.5-2.7 25.05-2.7L25.05-2.7Q26-2.7 26.4-3.45L26.4-3.45ZM11.8-1.8Q14.2-1.8 15.95-3.6 17.7-5.4 18.6-8.45 19.5-11.5 19.5-15.2L19.5-15.2Q19.5-23.7 13.35-23.7L13.35-23.7Q10-23.7 8.22-20.65 6.45-17.6 6.45-11.65L6.45-11.65Q6.45-7.2 7.58-4.5 8.7-1.8 11.8-1.8L11.8-1.8ZM41.95 0.65Q36.55 0.65 33.52-2.88 30.5-6.4 30.5-12.7L30.5-12.7Q30.5-19 33.52-22.53 36.55-26.05 41.95-26.05L41.95-26.05Q47.4-26.05 50.42-22.53 53.45-19 53.45-12.7L53.45-12.7Q53.45-6.4 50.42-2.88 47.4 0.65 41.95 0.65L41.95 0.65ZM41.95-1.15Q45.45-1.15 47.3-4.13 49.15-7.1 49.15-12.7L49.15-12.7Q49.15-18.3 47.3-21.25 45.45-24.2 41.95-24.2L41.95-24.2Q38.45-24.2 36.6-21.25 34.75-18.3 34.75-12.7L34.75-12.7Q34.75-7.1 36.6-4.13 38.45-1.15 41.95-1.15L41.95-1.15ZM82.09-3.35Q82.7-2.55 82.7-1.8L82.7-1.8Q82.7-0.75 81.9-0.13 81.09 0.5 79.7 0.5L79.7 0.5Q75.8 0.5 75.8-4.6L75.8-4.6 75.8-5.6Q74.75-2.65 72.55-1 70.34 0.65 67.4 0.65L67.4 0.65Q63.3 0.65 61.45-1.75 59.6-4.15 59.55-9.85L59.55-9.85 59.55-19.75Q59.55-23.2 58.9-25.15L58.9-25.15Q60-26.05 61.25-26.05L61.25-26.05Q62.25-26.05 62.87-25.45 63.5-24.85 63.5-23.8L63.5-23.8 63.55-10.35Q63.55-7.1 64.02-5.2 64.5-3.3 65.57-2.43 66.65-1.55 68.55-1.55L68.55-1.55Q70.25-1.55 71.82-2.78 73.4-4 74.42-6.68 75.45-9.35 75.45-13.45L75.45-13.45Q75.45-19.9 75.34-21.85 75.25-23.8 74.75-25.15L74.75-25.15Q75.8-26.05 77.05-26.05L77.05-26.05Q78.05-26.05 78.7-25.4 79.34-24.75 79.34-23.65L79.34-23.65 79.4-5.15Q79.4-3.75 79.72-3.18 80.05-2.6 80.8-2.6L80.8-2.6Q81.7-2.6 82.09-3.35L82.09-3.35ZM94.84 11.65Q91.19 11.65 88.77 10.13 86.34 8.6 86.34 5.65L86.34 5.65Q86.34 4 87.22 2.98 88.09 1.95 89.44 1.95L89.44 1.95Q90.84 1.95 91.44 2.7L91.44 2.7Q90.04 3.75 90.04 5.75L90.04 5.75Q90.04 7.8 91.39 8.88 92.74 9.95 94.99 9.95L94.99 9.95Q99.24 9.95 101.27 6.88 103.29 3.8 103.29-2.25L103.29-2.25 103.29-5.65Q102.39-2.85 100.24-1.33 98.09 0.2 94.99 0.2L94.99 0.2Q86.14 0.2 86.14-12.4L86.14-12.4Q86.14-18.15 88.67-22.1 91.19-26.05 97.54-26.05L97.54-26.05Q100.34-26.05 102.97-25.28 105.59-24.5 107.24-22.75L107.24-22.75 107.24-2.25Q107.24 11.65 94.84 11.65L94.84 11.65ZM96.04-2Q99.74-2 101.49-5.05 103.24-8.1 103.29-12.4L103.29-12.4 103.34-22.35Q102.49-23.25 100.94-23.73 99.39-24.2 97.49-24.2L97.49-24.2Q93.34-24.2 91.87-20.85 90.39-17.5 90.39-12L90.39-12Q90.39-6.7 91.77-4.35 93.14-2 96.04-2L96.04-2ZM135.09-5.7Q135.09-2.1 135.69-0.35L135.69-0.35Q134.69 0.55 133.39 0.55L133.39 0.55Q132.39 0.55 131.77-0.05 131.14-0.65 131.14-1.65L131.14-1.65 131.09-15.15Q131.09-19.55 129.92-21.7 128.74-23.85 125.89-23.85L125.89-23.85Q124.14-23.85 122.52-22.63 120.89-21.4 119.87-18.75 118.84-16.1 118.84-12.05L118.84-12.05Q118.84-5.6 118.94-3.65 119.04-1.7 119.54-0.35L119.54-0.35Q118.49 0.55 117.24 0.55L117.24 0.55Q116.19 0.55 115.57-0.1 114.94-0.75 114.94-1.85L114.94-1.85 114.89-34.3Q114.89-35.4 115.49-35.95 116.09-36.5 117.14-36.5L117.14-36.5Q117.89-36.5 118.54-36.23 119.19-35.95 119.54-35.6L119.54-35.6Q119.14-34.35 119.02-32.63 118.89-30.9 118.84-27.8L118.84-27.8 118.79-20.25Q119.89-23 122.04-24.53 124.19-26.05 127.04-26.05L127.04-26.05Q131.14-26.05 133.09-23.43 135.04-20.8 135.04-15.65L135.04-15.65 135.09-5.7ZM147.64 0.5Q145.39 0.5 144.14-0.95 142.89-2.4 142.89-5.05L142.89-5.05 142.89-34.3Q142.89-35.35 143.54-35.93 144.19-36.5 145.24-36.5L145.24-36.5Q146.49-36.5 147.54-35.6L147.54-35.6Q147.14-34.3 147.01-32.25 146.89-30.2 146.89-25.85L146.89-25.85 146.89-5.25Q146.89-3.95 147.36-3.28 147.84-2.6 148.79-2.6L148.79-2.6Q149.34-2.6 149.86-2.88 150.39-3.15 150.64-3.65L150.64-3.65Q151.19-2.9 151.19-2.1L151.19-2.1Q151.19-0.95 150.16-0.23 149.14 0.5 147.64 0.5L147.64 0.5ZM158.74-30Q157.64-30 156.84-30.8 156.04-31.6 156.04-32.7L156.04-32.7Q156.04-33.85 156.84-34.63 157.64-35.4 158.74-35.4L158.74-35.4Q159.89-35.4 160.66-34.63 161.44-33.85 161.44-32.7L161.44-32.7Q161.44-31.6 160.66-30.8 159.89-30 158.74-30L158.74-30ZM160.94-5.7Q160.94-2.05 161.59-0.35L161.59-0.35Q160.54 0.55 159.29 0.55L159.29 0.55Q158.29 0.55 157.66-0.05 157.04-0.65 157.04-1.65L157.04-1.65 156.99-19.8Q156.99-23.25 156.34-25.15L156.34-25.15Q157.39-26.05 158.64-26.05L158.64-26.05Q159.64-26.05 160.26-25.48 160.89-24.9 160.89-23.85L160.89-23.85 160.94-5.7ZM179.18 0.65Q173.68 0.65 170.63-2.75 167.58-6.15 167.58-12.55L167.58-12.55Q167.58-18.85 170.71-22.45 173.83-26.05 179.53-26.05L179.53-26.05Q183.58-26.05 185.81-24.3 188.03-22.55 188.03-19.7L188.03-19.7Q188.03-17.95 187.11-16.9 186.18-15.85 184.73-15.85L184.73-15.85Q183.08-15.85 182.38-16.8L182.38-16.8Q184.03-17.45 184.03-20L184.03-20Q184.03-22.15 182.66-23.23 181.28-24.3 179.18-24.3L179.18-24.3Q175.83-24.3 173.83-21.4 171.83-18.5 171.83-13.15L171.83-13.15Q171.83-7.4 174.13-4.75 176.43-2.1 180.23-2.1L180.23-2.1Q182.98-2.1 184.98-3.45 186.98-4.8 187.58-7.35L187.58-7.35Q188.33-7.1 188.33-6.1L188.33-6.1Q188.33-5.45 188.08-4.75L188.08-4.75Q187.28-2.15 184.91-0.75 182.53 0.65 179.18 0.65L179.18 0.65ZM196.98-30Q195.88-30 195.08-30.8 194.28-31.6 194.28-32.7L194.28-32.7Q194.28-33.85 195.08-34.63 195.88-35.4 196.98-35.4L196.98-35.4Q198.13-35.4 198.91-34.63 199.68-33.85 199.68-32.7L199.68-32.7Q199.68-31.6 198.91-30.8 198.13-30 196.98-30L196.98-30ZM199.18-5.7Q199.18-2.05 199.83-0.35L199.83-0.35Q198.78 0.55 197.53 0.55L197.53 0.55Q196.53 0.55 195.91-0.05 195.28-0.65 195.28-1.65L195.28-1.65 195.23-19.8Q195.23-23.25 194.58-25.15L194.58-25.15Q195.63-26.05 196.88-26.05L196.88-26.05Q197.88-26.05 198.51-25.48 199.13-24.9 199.13-23.85L199.13-23.85 199.18-5.7ZM217.28 0.65Q211.88 0.65 208.85-2.88 205.83-6.4 205.83-12.7L205.83-12.7Q205.83-19 208.85-22.53 211.88-26.05 217.28-26.05L217.28-26.05Q222.73-26.05 225.75-22.53 228.78-19 228.78-12.7L228.78-12.7Q228.78-6.4 225.75-2.88 222.73 0.65 217.28 0.65L217.28 0.65ZM217.28-1.15Q220.78-1.15 222.63-4.13 224.48-7.1 224.48-12.7L224.48-12.7Q224.48-18.3 222.63-21.25 220.78-24.2 217.28-24.2L217.28-24.2Q213.78-24.2 211.93-21.25 210.08-18.3 210.08-12.7L210.08-12.7Q210.08-7.1 211.93-4.13 213.78-1.15 217.28-1.15L217.28-1.15ZM257.43-3.35Q258.03-2.55 258.03-1.8L258.03-1.8Q258.03-0.75 257.23-0.13 256.43 0.5 255.03 0.5L255.03 0.5Q251.13 0.5 251.13-4.6L251.13-4.6 251.13-5.6Q250.08-2.65 247.88-1 245.68 0.65 242.73 0.65L242.73 0.65Q238.63 0.65 236.78-1.75 234.93-4.15 234.88-9.85L234.88-9.85 234.88-19.75Q234.88-23.2 234.23-25.15L234.23-25.15Q235.33-26.05 236.58-26.05L236.58-26.05Q237.58-26.05 238.2-25.45 238.83-24.85 238.83-23.8L238.83-23.8 238.88-10.35Q238.88-7.1 239.35-5.2 239.83-3.3 240.9-2.43 241.98-1.55 243.88-1.55L243.88-1.55Q245.58-1.55 247.15-2.78 248.73-4 249.75-6.68 250.78-9.35 250.78-13.45L250.78-13.45Q250.78-19.9 250.68-21.85 250.58-23.8 250.08-25.15L250.08-25.15Q251.13-26.05 252.38-26.05L252.38-26.05Q253.38-26.05 254.03-25.4 254.68-24.75 254.68-23.65L254.68-23.65 254.73-5.15Q254.73-3.75 255.05-3.18 255.38-2.6 256.13-2.6L256.13-2.6Q257.03-2.6 257.43-3.35L257.43-3.35ZM270.47 0.65Q265.82 0.65 263.5-1.03 261.17-2.7 261.17-5.4L261.17-5.4Q261.17-6.65 261.77-7.43 262.37-8.2 263.67-8.2L263.67-8.2Q264.17-8.2 264.47-8.15L264.47-8.15Q264.32-7.55 264.32-6.95L264.32-6.95Q264.32-6.4 264.37-6.05L264.37-6.05Q264.47-3.85 266.2-2.55 267.92-1.25 270.82-1.25L270.82-1.25Q273.67-1.25 275.37-2.25 277.07-3.25 277.07-5.2L277.07-5.2Q277.07-7 275.77-8.05 274.47-9.1 271.67-10.35L271.67-10.35 270.07-11.1Q267.27-12.4 265.8-13.3 264.32-14.2 263.25-15.75 262.17-17.3 262.17-19.65L262.17-19.65Q262.17-22.9 264.72-24.5 267.27-26.1 271.17-26.1L271.17-26.1Q275.27-26.1 277.57-24.78 279.87-23.45 279.87-21.1L279.87-21.1Q279.87-19 278.02-18.8L278.02-18.8Q277.52-18.7 277.37-18.7L277.37-18.7Q277.07-18.7 276.57-18.8L276.57-18.8Q276.67-19.4 276.67-19.8L276.67-19.8Q276.67-20.45 276.52-20.9L276.52-20.9Q276.32-22.55 274.9-23.4 273.47-24.25 271.02-24.25L271.02-24.25Q268.77-24.25 267.32-23.43 265.87-22.6 265.87-20.8L265.87-20.8Q265.87-19.3 266.72-18.23 267.57-17.15 268.75-16.48 269.92-15.8 272.32-14.65L272.32-14.65 273.42-14.15Q275.87-13 277.35-12.13 278.82-11.25 279.85-9.85 280.87-8.45 280.87-6.5L280.87-6.5Q280.87-3.55 278.42-1.45 275.97 0.65 270.47 0.65L270.47 0.65Z" opacity="1" transform="matrix(1,0,0,1,0,0)" fill="#faf1cb" class="wordmark-text-0" data-fill-palette-color="primary" id="text-0"></path></svg></g></svg></g></svg></g></svg></g><g transform="matrix(1,0,0,1,142.7798258307064,0)"><svg viewBox="0 0 109.9603483385872 94.43561541442412" height="94.43561541442412" width="109.9603483385872"><g><svg xmlns="http://www.w3.org/2000/svg" xmlns:xlink="http://www.w3.org/1999/xlink" version="1.1" x="8" y="0" viewBox="3.7035191987868017 1.559 93.98048080121319 94.4558497103959" enable-background="new 0 0 100 100" xml:space="preserve" height="94.43561541442412" width="93.9603483385872" class="icon-icon-0" data-fill-palette-color="accent" id="icon-0"><path d="M14.257 65.774c4.191 9.445 11.735 16.402 20.631 20.071l13.931-34.924L14.257 65.774zM20.294 69.357c-0.836-1.946 0.063-4.201 2.01-5.038 1.947-0.836 4.202 0.063 5.039 2.009 0.837 1.947-0.063 4.203-2.01 5.039C23.386 72.204 21.13 71.305 20.294 69.357zM34.255 79.309c-1.946 0.837-4.202-0.062-5.038-2.01-0.836-1.946 0.063-4.201 2.01-5.037 1.946-0.837 4.202 0.062 5.038 2.009C37.102 76.217 36.202 78.473 34.255 79.309zM37.428 67.26c-1.946 0.837-4.202-0.062-5.038-2.01-0.836-1.946 0.063-4.202 2.009-5.038 1.947-0.837 4.203 0.063 5.039 2.01S39.375 66.424 37.428 67.26z" fill="#faf1cb" data-fill-palette-color="accent"></path><path d="M11.821 35.463l-5.004-1.996C2.675 44.157 2.508 56.389 7.269 67.775l4.933-2.12C8.033 55.646 8.187 44.882 11.821 35.463z" fill="#faf1cb" data-fill-palette-color="accent"></path><path d="M33.217 12.967l-2.12-4.934C19.807 13.018 11.51 22.007 7.157 32.612l5.005 1.996C16.007 25.274 23.305 17.359 33.217 12.967z" fill="#faf1cb" data-fill-palette-color="accent"></path><path d="M64.254 12.223l1.997-5.005C55.561 3.077 43.328 2.91 31.943 7.67l2.12 4.934C44.071 8.435 54.835 8.588 64.254 12.223z" fill="#faf1cb" data-fill-palette-color="accent"></path><path d="M35.744 86.188c8.98 3.46 19.241 3.605 28.782-0.363L49.673 51.263 35.744 86.188zM46.19 84.062c-1.684 1.286-4.091 0.963-5.377-0.721-1.285-1.684-0.963-4.091 0.721-5.377 1.683-1.284 4.091-0.962 5.375 0.721C48.196 80.37 47.874 82.775 46.19 84.062zM46.339 72.75c-1.286-1.683-0.962-4.087 0.721-5.375 1.683-1.286 4.09-0.963 5.375 0.72 1.287 1.685 0.965 4.092-0.719 5.377C50.032 74.757 47.625 74.436 46.339 72.75zM58.648 84.2c-1.684 1.285-4.09 0.964-5.375-0.721-1.286-1.683-0.964-4.09 0.721-5.376 1.683-1.284 4.089-0.963 5.374 0.721C60.655 80.508 60.333 82.915 58.648 84.2z" fill="#faf1cb" data-fill-palette-color="accent"></path><path d="M56.498 43.198l34.561-14.852C86.868 18.9 79.323 11.943 70.427 8.273L56.498 43.198zM70.74 33.651c-1.982 0.751-4.195-0.249-4.945-2.23-0.748-1.981 0.251-4.195 2.232-4.944 1.981-0.75 4.194 0.25 4.944 2.232C73.72 30.69 72.722 32.902 70.74 33.651zM85.238 25.142c0.748 1.981-0.251 4.194-2.231 4.943-1.982 0.75-4.195-0.25-4.946-2.23-0.747-1.982 0.251-4.196 2.233-4.945C82.275 22.161 84.488 23.16 85.238 25.142zM74.444 21.755c-1.982 0.75-4.193-0.25-4.943-2.231-0.751-1.981 0.25-4.195 2.231-4.944s4.195 0.25 4.944 2.232C77.426 18.793 76.425 21.006 74.444 21.755z" fill="#faf1cb" data-fill-palette-color="accent"></path><path d="M92.75 27.619l4.934-2.12C92.7 14.208 83.711 5.912 73.105 1.559l-1.996 5.004C80.443 10.409 88.358 17.707 92.75 27.619z" fill="#faf1cb" data-fill-palette-color="accent"></path><path d="M85.785 63.975c3.461-8.98 3.605-19.241-0.362-28.782L50.861 50.044 85.785 63.975zM76.314 42.001c0.937-1.901 3.236-2.682 5.137-1.745 1.9 0.937 2.681 3.235 1.746 5.137-0.938 1.9-3.237 2.681-5.137 1.744C76.16 46.202 75.379 43.902 76.314 42.001zM81.212 52.2c1.9 0.936 2.681 3.233 1.744 5.136-0.938 1.9-3.235 2.681-5.136 1.745-1.9-0.937-2.682-3.235-1.747-5.136C77.011 52.045 79.31 51.263 81.212 52.2zM70.229 45.673c1.902 0.935 2.683 3.235 1.747 5.137-0.938 1.899-3.236 2.68-5.135 1.743-1.904-0.936-2.684-3.235-1.747-5.135C66.031 45.518 68.329 44.736 70.229 45.673z" fill="#faf1cb" data-fill-palette-color="accent"></path><path d="M65.372 85.461c9.445-4.191 16.402-11.735 20.072-20.631L50.52 50.898 65.372 85.461zM74.408 63.249c1.979-0.756 4.196 0.237 4.952 2.216 0.755 1.98-0.238 4.196-2.217 4.951-1.98 0.756-4.196-0.238-4.95-2.217C71.437 66.22 72.429 64.005 74.408 63.249zM62.501 59.579c1.979-0.756 4.196 0.238 4.95 2.219 0.756 1.979-0.237 4.194-2.216 4.95-1.979 0.753-4.195-0.238-4.95-2.218C59.529 62.551 60.522 60.334 62.501 59.579zM66.103 71.834c1.979-0.754 4.196 0.237 4.952 2.219 0.757 1.979-0.237 4.194-2.216 4.95-1.98 0.753-4.195-0.239-4.95-2.217C63.133 74.806 64.125 72.591 66.103 71.834z" fill="#faf1cb" data-fill-palette-color="accent"></path><path d="M35.062 87.896l-1.996 5.005c10.689 4.142 22.922 4.31 34.308-0.452l-2.12-4.934C55.245 91.684 44.48 91.53 35.062 87.896z" fill="#faf1cb" data-fill-palette-color="accent"></path><path d="M33.944 14.659C24.498 18.85 17.542 26.394 13.872 35.29l34.924 13.93L33.944 14.659zM25.689 36.676c-1.974 0.769-4.198-0.206-4.968-2.18-0.77-1.974 0.206-4.198 2.18-4.967 1.974-0.77 4.197 0.206 4.967 2.179C28.638 33.682 27.663 35.906 25.689 36.676zM37.624 40.255c-1.974 0.77-4.198-0.206-4.968-2.18-0.77-1.974 0.206-4.197 2.181-4.967 1.973-0.77 4.196 0.206 4.966 2.18C40.573 37.262 39.597 39.486 37.624 40.255zM33.93 28.027c-1.974 0.77-4.198-0.206-4.968-2.18-0.77-1.973 0.207-4.197 2.18-4.967 1.973-0.77 4.197 0.206 4.967 2.18S35.903 27.257 33.93 28.027z" fill="#faf1cb" data-fill-palette-color="accent"></path><path d="M66.099 87.152l2.12 4.934c11.29-4.983 19.587-13.973 23.94-24.578l-5.005-1.996C83.308 74.846 76.011 82.761 66.099 87.152z" fill="#faf1cb" data-fill-palette-color="accent"></path><path d="M87.113 34.465c4.168 10.008 4.016 20.773 0.382 30.191l5.005 1.997c4.141-10.69 4.309-22.923-0.452-34.308L87.113 34.465z" fill="#faf1cb" data-fill-palette-color="accent"></path><path d="M13.53 36.145c-3.46 8.98-3.605 19.241 0.363 28.783l34.562-14.852L13.53 36.145zM22.148 58.113c-0.992 1.872-3.312 2.587-5.185 1.596-1.873-0.992-2.587-3.312-1.596-5.186 0.992-1.871 3.312-2.586 5.185-1.595C22.424 53.919 23.139 56.241 22.148 58.113zM22.736 46.182c-0.991 1.873-3.312 2.587-5.185 1.596s-2.587-3.312-1.595-5.185c0.991-1.873 3.312-2.586 5.184-1.596C23.012 41.989 23.727 44.31 22.736 46.182zM33.522 53.024c-0.991 1.873-3.312 2.588-5.185 1.597-1.873-0.992-2.587-3.312-1.595-5.185 0.991-1.873 3.312-2.586 5.184-1.595C33.799 48.832 34.513 51.153 33.522 53.024z" fill="#faf1cb" data-fill-palette-color="accent"></path><path d="M63.571 13.932c-8.979-3.46-19.24-3.605-28.781 0.363l14.852 34.562L63.571 13.932zM51.848 18.379c0.9-1.917 3.184-2.742 5.103-1.842 1.917 0.9 2.741 3.184 1.841 5.102-0.9 1.918-3.183 2.743-5.102 1.844C51.772 22.582 50.947 20.298 51.848 18.379zM52.475 32.741c-0.9 1.918-3.185 2.743-5.103 1.842-1.917-0.901-2.742-3.185-1.842-5.102s3.184-2.742 5.102-1.842C52.549 28.54 53.374 30.824 52.475 32.741zM45.005 16.522c1.917 0.9 2.742 3.185 1.842 5.102-0.9 1.918-3.184 2.743-5.102 1.843-1.917-0.9-2.743-3.185-1.842-5.103C40.803 16.448 43.086 15.623 45.005 16.522z" fill="#faf1cb" data-fill-palette-color="accent"></path><path d="M12.565 66.501l-4.934 2.12c4.984 11.289 13.974 19.587 24.579 23.94l1.996-5.007C24.873 83.71 16.957 76.413 12.565 66.501z" fill="#faf1cb" data-fill-palette-color="accent"></path></svg></g></svg></g><g><rect width="142.7798258307064" height="6.162301921583123" y="87.273313492841" x="252.7401741692936" fill="#faf1cb" data-fill-palette-color="accent"></rect><rect width="142.7798258307064" height="6.162301921583123" y="87.273313492841" x="0" fill="#faf1cb" data-fill-palette-color="accent"></rect><rect width="142.7798258307064" height="6.162301921583123" y="74.94870964967475" x="252.7401741692936" fill="#faf1cb" data-fill-palette-color="accent"></rect><rect width="142.7798258307064" height="6.162301921583123" y="74.94870964967475" x="0" fill="#faf1cb" data-fill-palette-color="accent"></rect></g></svg></g><defs></defs></svg><rect width="395.52" height="178.89986849618947" fill="none" stroke="none" visibility="hidden"></rect></g></svg></g></svg>